<?xml version="1.0" encoding="utf-8"?>
<!-- Generator: Adobe Illustrator 24.0.1, SVG Export Plug-In . SVG Version: 6.00 Build 0)  -->
<svg version="1.1" id="Calque_1" xmlns="http://www.w3.org/2000/svg" xmlns:xlink="http://www.w3.org/1999/xlink" x="0px" y="0px"
	 viewBox="0 0 512 128.2" style="enable-background:new 0 0 512 128.2;" xml:space="preserve">
<style type="text/css">
	.st0{fill:#0089FF;}
	.st1{fill:#00B5FF;}
	.st2{fill:#005FFF;}
	.st3{fill:#FFFFFF;}
	.st4{fill:#0E1832;}
</style>
<g>
	<path class="st0" d="M38.2,83.2H16.3l-0.9,12.3L0,83.2v38.2h38.2c21.1,0,38.2-17.1,38.2-38.2c0-7-1.9-13.5-5.1-19.1
		C64.7,75.5,52.3,83.2,38.2,83.2z"/>
	<path class="st1" d="M76.4,45c0-21.1-17.1-38.2-38.2-38.2h-0.3C17,6.8,0,23.8,0,44.7V45h38.2c14.1,0,26.5,7.7,33.1,19.1
		C74.5,58.5,76.4,52,76.4,45L76.4,45z"/>
	<path class="st2" d="M38.2,45H0v38.2l15.4,12.3l0.9-12.3h21.9c14.1,0,26.5-7.7,33.1-19.1C64.7,52.7,52.3,45,38.2,45z"/>
	<g>
		<circle class="st3" cx="11.2" cy="64.1" r="4.2"/>
		<circle class="st3" cx="49.2" cy="64.1" r="4.2"/>
		<circle class="st3" cx="30.2" cy="64.1" r="4.2"/>
	</g>
</g>
<g>
	<path class="st4" d="M174.9,64.4c-1.1-0.5-2.2-1-3.3-1.3c0.3-0.2,0.6-0.3,0.9-0.5c2.5-1.4,4.6-3.3,6.4-5.6c1.8-2.3,2.6-5.3,2.6-8.9
		c0-5.4-1.2-9.7-3.6-12.9c-2.4-3.3-5.8-5.6-10.1-7.1s-9.4-2.2-15.2-2.2h-34.1v80.3h37.3c5.5,0,10.4-0.9,14.9-2.6s8.1-4.4,10.8-7.9
		c2.7-3.6,4-8.2,4-13.8c0-4.1-0.9-7.6-2.8-10.5C180.8,68.4,178.2,66.1,174.9,64.4z M137.9,41h14.5c2.6,0,4.7,0.6,6.5,1.9
		c1.8,1.2,2.6,3.5,2.6,6.8c0,1.8-0.4,3.3-1.1,4.5c-0.8,1.1-1.7,1.9-3,2.5c-1.2,0.5-2.5,0.8-3.9,0.8h-15.7L137.9,41L137.9,41z
		 M164,87.1c-1,1.5-2.4,2.5-4.1,3.1c-1.7,0.6-3.5,0.9-5.5,0.9H138V71.7h16c1.5,0,3,0.2,4.3,0.5c1.4,0.3,2.6,0.8,3.7,1.5
		c1.1,0.7,1.9,1.6,2.6,2.8c0.6,1.2,1,2.7,1,4.6C165.5,83.6,165,85.6,164,87.1z"/>
	<path class="st4" d="M245.1,49.3c-2-1.6-4.1-2.8-6.4-3.7c-2.3-0.8-4.7-1.4-7-1.7s-4.5-0.5-6.4-0.5c-5.5,0-10.4,0.6-14.8,1.7
		c-4.4,1.1-7.6,2.3-9.7,3.6v15.9c2.2-1.8,5.2-3.3,8.7-4.5c3.6-1.2,7.1-1.9,10.7-1.9c4.3,0,7.7,0.8,10.1,2.5c2.4,1.6,3.6,4.3,3.6,8
		v3.9c-0.6-0.3-1.2-0.7-1.9-1c-2-1-4.4-1.7-6.9-2.3c-2.6-0.6-5.2-0.8-7.9-0.8c-4.9,0-9,0.8-12.2,2.3s-5.6,3.7-7.2,6.5
		c-1.6,2.8-2.3,6.1-2.3,9.9c0,4,0.7,7.4,2,10.1c1.4,2.7,3.3,4.8,5.7,6.4s5.3,2.7,8.6,3.4c3.3,0.7,6.7,1,10.4,1
		c6.2,0,11.5-0.5,15.8-1.4c4.4-1,7.7-2.5,10.1-4.6c2.3-2.1,3.5-4.9,3.5-8.4l0.1-28.8c0-3.7-0.6-6.8-1.8-9.3
		C248.6,53,247,50.9,245.1,49.3z M231.3,94.5c-1.6,0.6-4.5,0.8-8.6,0.8c-1.6,0-3.2-0.3-4.6-1c-1.5-0.6-2.7-1.6-3.6-2.8
		c-0.9-1.2-1.3-2.6-1.3-4.1c0-2.5,0.9-4.3,2.7-5.5s4.7-1.7,8.6-1.7c2.6,0,5,0.3,7.2,0.8c0.7,0.2,1.4,0.4,2,0.6V91
		C233.8,92.8,233,93.9,231.3,94.5z"/>
	<polygon class="st4" points="294.4,86.4 278.2,45.2 258.7,45.2 284.1,106.2 302.2,106.2 327.6,45.2 308.7,45.2 	"/>
	<path class="st4" d="M382.6,49.3c-2-1.6-4.1-2.8-6.4-3.7c-2.3-0.8-4.7-1.4-7-1.7s-4.5-0.5-6.4-0.5c-5.5,0-10.4,0.6-14.8,1.7
		c-4.4,1.1-7.6,2.3-9.7,3.6v15.9c2.2-1.8,5.2-3.3,8.7-4.5c3.6-1.2,7.1-1.9,10.7-1.9c4.3,0,7.7,0.8,10.1,2.5c2.4,1.6,3.6,4.3,3.6,8
		v3.9c-0.6-0.3-1.2-0.7-1.9-1c-2-1-4.4-1.7-6.9-2.3c-2.6-0.6-5.2-0.8-7.9-0.8c-4.9,0-9,0.8-12.2,2.3s-5.6,3.7-7.2,6.5
		s-2.3,6.1-2.3,9.9c0,4,0.7,7.4,2,10.1c1.4,2.7,3.3,4.8,5.7,6.4c2.4,1.6,5.3,2.7,8.6,3.4c3.2,0.7,6.7,1,10.4,1
		c6.2,0,11.5-0.5,15.8-1.4c4.4-1,7.7-2.5,10.1-4.6c2.3-2.1,3.5-4.9,3.5-8.4l0.1-28.8c0-3.7-0.6-6.8-1.8-9.3
		C386.2,53,384.6,50.9,382.6,49.3z M368.9,94.5c-1.6,0.6-4.5,0.8-8.6,0.8c-1.6,0-3.2-0.3-4.6-1c-1.5-0.6-2.7-1.6-3.6-2.8
		c-0.9-1.2-1.3-2.6-1.3-4.1c0-2.5,0.9-4.3,2.7-5.5c1.8-1.2,4.7-1.7,8.6-1.7c2.6,0,5,0.3,7.2,0.8c0.7,0.2,1.4,0.4,2,0.6V91
		C371.3,92.8,370.5,93.9,368.9,94.5z"/>
	<path class="st4" d="M432.3,43.4c-3.8,0-7.5,0.5-11.3,1.5c-3.7,1-7,2.1-9.9,3.4c-2.9,1.2-4.9,2.3-6,3.3v54.6H423V59.1
		c1.4-0.2,3.1-0.4,5.1-0.5s4.1-0.1,6.4-0.1c2.2,0,4.4,0.1,6.5,0.3s3.8,0.4,5.2,0.7V46.4c-1.1-0.9-2.8-1.6-4.9-2.2
		C439,43.7,436,43.4,432.3,43.4z"/>
	<path class="st4" d="M494.2,20.2v26.1c-0.8-0.5-1.6-0.9-2.4-1.2c-2.2-0.8-4.4-1.3-6.5-1.5s-3.8-0.3-5.1-0.3c-9.7,0-17,2.9-21.9,8.6
		S451,65.4,451,75.3c0,6.3,0.8,11.6,2.5,15.9c1.6,4.3,3.9,7.6,6.8,10.1c2.9,2.4,6.3,4.2,10.3,5.2s8.3,1.6,13.1,1.6
		c3.5,0,7-0.4,10.4-1.1c3.4-0.8,6.4-1.9,9.1-3.3s4.8-3.3,6.4-5.5s2.4-4.8,2.4-7.8V20.2H494.2z M494.2,88.4c0,1.5-0.9,2.7-2.7,3.4
		c-1.8,0.8-4.2,1.1-7,1.1c-3.8,0-6.8-0.7-9-2.1s-3.8-3.4-4.8-5.9s-1.4-5.6-1.4-9.1c0-4.5,0.6-8.1,1.7-10.7c1.2-2.6,2.9-4.5,5.2-5.7
		c2.3-1.1,5.2-1.7,8.6-1.7c1.5,0,3.1,0.2,4.8,0.7c1.6,0.4,3.2,1.1,4.6,1.9L494.2,88.4L494.2,88.4z"/>
</g>
</svg>
